<mxfile host="app.diagrams.net" modified="2023-05-09T07:19:22.856Z" agent="Mozilla/5.0 (Windows NT 10.0; Win64; x64; rv:102.0) Gecko/20100101 Firefox/102.0" etag="jiug4cpNCbVSrFfVNAQz" version="21.2.9" type="github">
  <diagram name="Page-1" id="c7558073-3199-34d8-9f00-42111426c3f3">
    <mxGraphModel dx="848" dy="942" grid="1" gridSize="10" guides="1" tooltips="1" connect="1" arrows="1" fold="1" page="1" pageScale="1" pageWidth="826" pageHeight="1169" background="none" math="0" shadow="0">
      <root>
        <mxCell id="0" />
        <mxCell id="1" parent="0" />
        <mxCell id="DdDH8tfC4Vi8uiK7Jez3-198" value="" style="rounded=1;whiteSpace=wrap;html=1;" vertex="1" parent="1">
          <mxGeometry x="1258" y="171.5" width="196" height="105" as="geometry" />
        </mxCell>
        <mxCell id="DdDH8tfC4Vi8uiK7Jez3-146" value="&lt;div align=&quot;center&quot;&gt;&lt;b&gt;CLOSE&lt;br&gt;&lt;/b&gt;&lt;/div&gt;&lt;div align=&quot;center&quot;&gt;- - - - - - - - - - - - -&lt;br&gt;&lt;/div&gt;&lt;div align=&quot;center&quot;&gt;send FIN&lt;/div&gt;" style="text;whiteSpace=wrap;html=1;fontSize=12;fontFamily=Helvetica;fontColor=default;align=center;" vertex="1" parent="1">
          <mxGeometry x="1936" y="759" width="140" height="70" as="geometry" />
        </mxCell>
        <mxCell id="DdDH8tfC4Vi8uiK7Jez3-96" value="LISTEN" style="rounded=1;whiteSpace=wrap;html=1;strokeColor=default;strokeWidth=3;fontFamily=Helvetica;fontSize=12;fontColor=default;fillColor=#FFF2CC;shadow=0;" vertex="1" parent="1">
          <mxGeometry x="1606" y="309" width="120" height="60" as="geometry" />
        </mxCell>
        <mxCell id="DdDH8tfC4Vi8uiK7Jez3-98" value="&lt;div&gt;CLOSED&lt;/div&gt;" style="rounded=1;whiteSpace=wrap;html=1;strokeColor=default;strokeWidth=3;fontFamily=Helvetica;fontSize=12;fontColor=default;fillColor=#E6D0DE;shadow=0;" vertex="1" parent="1">
          <mxGeometry x="1606" y="99" width="120" height="60" as="geometry" />
        </mxCell>
        <mxCell id="DdDH8tfC4Vi8uiK7Jez3-101" value="SYN-RECEIVED" style="rounded=1;whiteSpace=wrap;html=1;strokeColor=default;strokeWidth=3;fontFamily=Helvetica;fontSize=12;fontColor=default;fillColor=#D4E1F5;shadow=0;" vertex="1" parent="1">
          <mxGeometry x="1336" y="439" width="120" height="60" as="geometry" />
        </mxCell>
        <mxCell id="DdDH8tfC4Vi8uiK7Jez3-102" value="&lt;div&gt;SYN-SENT&lt;/div&gt;" style="rounded=1;whiteSpace=wrap;html=1;strokeColor=default;strokeWidth=3;fontFamily=Helvetica;fontSize=12;fontColor=default;fillColor=#D4E1F5;shadow=0;" vertex="1" parent="1">
          <mxGeometry x="1896" y="439" width="120" height="60" as="geometry" />
        </mxCell>
        <mxCell id="DdDH8tfC4Vi8uiK7Jez3-105" value="ESTABLISHED " style="rounded=1;whiteSpace=wrap;html=1;strokeColor=default;strokeWidth=3;fontFamily=Helvetica;fontSize=12;fontColor=default;fillColor=#E6FFCC;shadow=0;" vertex="1" parent="1">
          <mxGeometry x="1606" y="559" width="120" height="60" as="geometry" />
        </mxCell>
        <mxCell id="DdDH8tfC4Vi8uiK7Jez3-106" value="&lt;div&gt;FIN-WAIT-1&lt;/div&gt;" style="rounded=1;whiteSpace=wrap;html=1;strokeColor=default;strokeWidth=3;fontFamily=Helvetica;fontSize=12;fontColor=default;fillColor=#D5E8D4;shadow=0;" vertex="1" parent="1">
          <mxGeometry x="1336" y="689" width="120" height="60" as="geometry" />
        </mxCell>
        <mxCell id="DdDH8tfC4Vi8uiK7Jez3-107" value="&lt;div&gt;CLOSE-WAIT&lt;/div&gt;" style="rounded=1;whiteSpace=wrap;html=1;strokeColor=default;strokeWidth=3;fontFamily=Helvetica;fontSize=12;fontColor=default;fillColor=#F8CECC;shadow=0;" vertex="1" parent="1">
          <mxGeometry x="1896" y="689" width="120" height="60" as="geometry" />
        </mxCell>
        <mxCell id="DdDH8tfC4Vi8uiK7Jez3-108" value="&lt;div&gt;FIN-WAIT-2&lt;/div&gt;" style="rounded=1;whiteSpace=wrap;html=1;strokeColor=default;strokeWidth=3;fontFamily=Helvetica;fontSize=12;fontColor=default;fillColor=#D5E8D4;shadow=0;" vertex="1" parent="1">
          <mxGeometry x="1336" y="839" width="120" height="60" as="geometry" />
        </mxCell>
        <mxCell id="DdDH8tfC4Vi8uiK7Jez3-109" value="CLOSING" style="rounded=1;whiteSpace=wrap;html=1;strokeColor=default;strokeWidth=3;fontFamily=Helvetica;fontSize=12;fontColor=default;fillColor=#D5E8D4;shadow=0;" vertex="1" parent="1">
          <mxGeometry x="1606" y="839" width="120" height="60" as="geometry" />
        </mxCell>
        <mxCell id="DdDH8tfC4Vi8uiK7Jez3-110" value="LAST-ACK" style="rounded=1;whiteSpace=wrap;html=1;strokeColor=default;strokeWidth=3;fontFamily=Helvetica;fontSize=12;fontColor=default;fillColor=#F8CECC;shadow=0;" vertex="1" parent="1">
          <mxGeometry x="1896" y="839" width="120" height="60" as="geometry" />
        </mxCell>
        <mxCell id="DdDH8tfC4Vi8uiK7Jez3-111" value="&lt;div&gt;CLOSED&lt;/div&gt;" style="rounded=1;whiteSpace=wrap;html=1;strokeColor=default;strokeWidth=3;fontFamily=Helvetica;fontSize=12;fontColor=default;fillColor=#E6D0DE;shadow=0;" vertex="1" parent="1">
          <mxGeometry x="1896" y="989" width="120" height="60" as="geometry" />
        </mxCell>
        <mxCell id="DdDH8tfC4Vi8uiK7Jez3-112" value="TIME-WAIT" style="rounded=1;whiteSpace=wrap;html=1;strokeColor=default;strokeWidth=3;fontFamily=Helvetica;fontSize=12;fontColor=default;fillColor=#D5E8D4;shadow=0;" vertex="1" parent="1">
          <mxGeometry x="1606" y="989" width="120" height="60" as="geometry" />
        </mxCell>
        <mxCell id="DdDH8tfC4Vi8uiK7Jez3-115" value="&lt;div align=&quot;center&quot;&gt;&lt;b&gt;active OPEN&lt;/b&gt;&lt;/div&gt;&lt;div align=&quot;center&quot;&gt;- - - - - - - - - - - - - - - -&lt;br&gt;&lt;/div&gt;&lt;div align=&quot;center&quot;&gt;create TCB&lt;/div&gt;&lt;div align=&quot;center&quot;&gt;send SYN&lt;/div&gt;" style="text;html=1;strokeColor=none;fillColor=none;align=center;verticalAlign=middle;whiteSpace=wrap;rounded=0;fontSize=12;fontFamily=Helvetica;fontColor=default;shadow=0;" vertex="1" parent="1">
          <mxGeometry x="1976" y="259" width="150" height="20" as="geometry" />
        </mxCell>
        <mxCell id="DdDH8tfC4Vi8uiK7Jez3-117" value="" style="endArrow=classic;html=1;rounded=0;fontFamily=Helvetica;fontSize=12;fontColor=default;exitX=1;exitY=0.25;exitDx=0;exitDy=0;entryX=0.75;entryY=0;entryDx=0;entryDy=0;fillColor=#FF0000;strokeColor=#FF0000;shadow=0;" edge="1" parent="1" source="DdDH8tfC4Vi8uiK7Jez3-98" target="DdDH8tfC4Vi8uiK7Jez3-102">
          <mxGeometry width="50" height="50" relative="1" as="geometry">
            <mxPoint x="1766" y="719" as="sourcePoint" />
            <mxPoint x="1816" y="669" as="targetPoint" />
            <Array as="points">
              <mxPoint x="1986" y="114" />
            </Array>
          </mxGeometry>
        </mxCell>
        <mxCell id="DdDH8tfC4Vi8uiK7Jez3-124" value="" style="endArrow=classic;html=1;rounded=0;dashed=1;fontFamily=Helvetica;fontSize=12;fontColor=default;exitX=0.25;exitY=0;exitDx=0;exitDy=0;entryX=1;entryY=0.75;entryDx=0;entryDy=0;fillColor=#FF0000;strokeColor=#000000;shadow=0;" edge="1" parent="1" source="DdDH8tfC4Vi8uiK7Jez3-102" target="DdDH8tfC4Vi8uiK7Jez3-98">
          <mxGeometry width="50" height="50" relative="1" as="geometry">
            <mxPoint x="1736" y="124" as="sourcePoint" />
            <mxPoint x="1996" y="449" as="targetPoint" />
            <Array as="points">
              <mxPoint x="1926" y="144" />
            </Array>
          </mxGeometry>
        </mxCell>
        <mxCell id="DdDH8tfC4Vi8uiK7Jez3-127" value="" style="endArrow=classic;html=1;rounded=0;fontFamily=Helvetica;fontSize=12;fontColor=default;exitX=0.25;exitY=1;exitDx=0;exitDy=0;fillColor=#FF0000;strokeColor=#0000FF;entryX=0.25;entryY=0;entryDx=0;entryDy=0;shadow=0;" edge="1" parent="1" source="DdDH8tfC4Vi8uiK7Jez3-98" target="DdDH8tfC4Vi8uiK7Jez3-96">
          <mxGeometry width="50" height="50" relative="1" as="geometry">
            <mxPoint x="1736" y="124" as="sourcePoint" />
            <mxPoint x="1696" y="299" as="targetPoint" />
            <Array as="points" />
          </mxGeometry>
        </mxCell>
        <mxCell id="DdDH8tfC4Vi8uiK7Jez3-128" value="" style="endArrow=classic;html=1;rounded=0;dashed=1;fontFamily=Helvetica;fontSize=12;fontColor=default;exitX=0.75;exitY=0;exitDx=0;exitDy=0;entryX=0.75;entryY=1;entryDx=0;entryDy=0;fillColor=#FF0000;strokeColor=#000000;shadow=0;" edge="1" parent="1" source="DdDH8tfC4Vi8uiK7Jez3-96" target="DdDH8tfC4Vi8uiK7Jez3-98">
          <mxGeometry width="50" height="50" relative="1" as="geometry">
            <mxPoint x="1646" y="169" as="sourcePoint" />
            <mxPoint x="1646" y="319" as="targetPoint" />
            <Array as="points" />
          </mxGeometry>
        </mxCell>
        <mxCell id="DdDH8tfC4Vi8uiK7Jez3-131" value="&lt;div&gt;&lt;br&gt;&lt;/div&gt;&lt;div&gt;&lt;b&gt;CLOSE&lt;/b&gt;&lt;br&gt;&lt;/div&gt;&lt;div&gt;- - - - - - - - - - - &lt;br&gt;&lt;/div&gt;&lt;div&gt;delete TCB&lt;/div&gt;" style="text;html=1;strokeColor=none;fillColor=none;align=center;verticalAlign=middle;whiteSpace=wrap;rounded=0;fontSize=12;fontFamily=Helvetica;fontColor=default;shadow=0;" vertex="1" parent="1">
          <mxGeometry x="1796" y="149" width="150" height="30" as="geometry" />
        </mxCell>
        <mxCell id="DdDH8tfC4Vi8uiK7Jez3-132" value="&lt;div&gt;&lt;br&gt;&lt;/div&gt;&lt;div&gt;&lt;b&gt;passive OPEN&lt;/b&gt;&lt;br&gt;&lt;/div&gt;&lt;div&gt;- - - - - - - - - - - &lt;br&gt;&lt;/div&gt;&lt;div&gt;create TCB&lt;/div&gt;" style="text;html=1;strokeColor=none;fillColor=none;align=center;verticalAlign=middle;whiteSpace=wrap;rounded=0;fontSize=12;fontFamily=Helvetica;fontColor=default;shadow=0;" vertex="1" parent="1">
          <mxGeometry x="1506" y="189" width="150" height="30" as="geometry" />
        </mxCell>
        <mxCell id="DdDH8tfC4Vi8uiK7Jez3-133" value="&lt;div&gt;&lt;br&gt;&lt;/div&gt;&lt;div&gt;&lt;b&gt;CLOSE&lt;/b&gt;&lt;br&gt;&lt;/div&gt;&lt;div&gt;- - - - - - - - - - - &lt;br&gt;&lt;/div&gt;&lt;div&gt;delete TCB&lt;/div&gt;" style="text;html=1;strokeColor=none;fillColor=none;align=center;verticalAlign=middle;whiteSpace=wrap;rounded=0;fontSize=12;fontFamily=Helvetica;fontColor=default;shadow=0;" vertex="1" parent="1">
          <mxGeometry x="1676" y="249" width="150" height="30" as="geometry" />
        </mxCell>
        <mxCell id="DdDH8tfC4Vi8uiK7Jez3-136" value="" style="endArrow=classic;html=1;rounded=0;fontFamily=Helvetica;fontSize=12;fontColor=default;exitX=0.25;exitY=1;exitDx=0;exitDy=0;fillColor=#FF0000;strokeColor=#0000FF;entryX=1;entryY=0.25;entryDx=0;entryDy=0;shadow=0;" edge="1" parent="1" source="DdDH8tfC4Vi8uiK7Jez3-96" target="DdDH8tfC4Vi8uiK7Jez3-101">
          <mxGeometry width="50" height="50" relative="1" as="geometry">
            <mxPoint x="1646" y="169" as="sourcePoint" />
            <mxPoint x="1646" y="319" as="targetPoint" />
            <Array as="points">
              <mxPoint x="1636" y="454" />
            </Array>
          </mxGeometry>
        </mxCell>
        <mxCell id="DdDH8tfC4Vi8uiK7Jez3-137" value="&lt;div align=&quot;center&quot;&gt;&lt;b&gt;recv SYN&lt;br&gt;&lt;/b&gt;&lt;/div&gt;&lt;div align=&quot;center&quot;&gt;- - - - - - - - - - - - - - - -&lt;br&gt;&lt;/div&gt;&lt;div align=&quot;center&quot;&gt;send SYN + ACK&lt;br&gt;&lt;/div&gt;" style="text;html=1;strokeColor=none;fillColor=none;align=center;verticalAlign=middle;whiteSpace=wrap;rounded=0;fontSize=12;fontFamily=Helvetica;fontColor=default;shadow=0;" vertex="1" parent="1">
          <mxGeometry x="1466" y="409" width="150" height="30" as="geometry" />
        </mxCell>
        <mxCell id="DdDH8tfC4Vi8uiK7Jez3-138" value="" style="endArrow=classic;html=1;rounded=0;dashed=1;fontFamily=Helvetica;fontSize=12;fontColor=default;exitX=0;exitY=0.5;exitDx=0;exitDy=0;entryX=1;entryY=0.5;entryDx=0;entryDy=0;fillColor=#FF0000;strokeColor=#000000;shadow=0;" edge="1" parent="1" source="DdDH8tfC4Vi8uiK7Jez3-102" target="DdDH8tfC4Vi8uiK7Jez3-101">
          <mxGeometry width="50" height="50" relative="1" as="geometry">
            <mxPoint x="1706" y="319" as="sourcePoint" />
            <mxPoint x="1706" y="169" as="targetPoint" />
            <Array as="points" />
          </mxGeometry>
        </mxCell>
        <mxCell id="DdDH8tfC4Vi8uiK7Jez3-139" value="&lt;div align=&quot;center&quot;&gt;&lt;b&gt;recv SYN&lt;br&gt;&lt;/b&gt;&lt;/div&gt;&lt;div align=&quot;center&quot;&gt;- - - - - - - - - - - - - - - -&lt;br&gt;&lt;/div&gt;&lt;div align=&quot;center&quot;&gt;send SYN + ACK&lt;br&gt;&lt;/div&gt;" style="text;html=1;strokeColor=none;fillColor=none;align=center;verticalAlign=middle;whiteSpace=wrap;rounded=0;fontSize=12;fontFamily=Helvetica;fontColor=default;shadow=0;" vertex="1" parent="1">
          <mxGeometry x="1591" y="479" width="150" height="30" as="geometry" />
        </mxCell>
        <mxCell id="DdDH8tfC4Vi8uiK7Jez3-141" value="" style="endArrow=classic;html=1;rounded=0;fontFamily=Helvetica;fontSize=12;fontColor=default;exitX=0.75;exitY=1;exitDx=0;exitDy=0;fillColor=#FF0000;strokeColor=#0000FF;entryX=0;entryY=0.25;entryDx=0;entryDy=0;shadow=0;" edge="1" parent="1" source="DdDH8tfC4Vi8uiK7Jez3-101" target="DdDH8tfC4Vi8uiK7Jez3-105">
          <mxGeometry width="50" height="50" relative="1" as="geometry">
            <mxPoint x="1646" y="379" as="sourcePoint" />
            <mxPoint x="1466" y="464" as="targetPoint" />
            <Array as="points">
              <mxPoint x="1426" y="574" />
            </Array>
          </mxGeometry>
        </mxCell>
        <mxCell id="DdDH8tfC4Vi8uiK7Jez3-142" value="" style="endArrow=classic;html=1;rounded=0;fontFamily=Helvetica;fontSize=12;fontColor=default;exitX=1;exitY=0.75;exitDx=0;exitDy=0;fillColor=#FF0000;strokeColor=#0000FF;entryX=0.5;entryY=0;entryDx=0;entryDy=0;shadow=0;" edge="1" parent="1" source="DdDH8tfC4Vi8uiK7Jez3-105" target="DdDH8tfC4Vi8uiK7Jez3-107">
          <mxGeometry width="50" height="50" relative="1" as="geometry">
            <mxPoint x="1406" y="509" as="sourcePoint" />
            <mxPoint x="1616" y="584" as="targetPoint" />
            <Array as="points">
              <mxPoint x="1956" y="604" />
            </Array>
          </mxGeometry>
        </mxCell>
        <mxCell id="DdDH8tfC4Vi8uiK7Jez3-143" value="" style="endArrow=classic;html=1;rounded=0;fontFamily=Helvetica;fontSize=12;fontColor=default;exitX=0.5;exitY=1;exitDx=0;exitDy=0;fillColor=#FF0000;strokeColor=#0000FF;entryX=0.5;entryY=0;entryDx=0;entryDy=0;shadow=0;" edge="1" parent="1" source="DdDH8tfC4Vi8uiK7Jez3-107" target="DdDH8tfC4Vi8uiK7Jez3-110">
          <mxGeometry width="50" height="50" relative="1" as="geometry">
            <mxPoint x="1736" y="584" as="sourcePoint" />
            <mxPoint x="1966" y="679" as="targetPoint" />
            <Array as="points" />
          </mxGeometry>
        </mxCell>
        <mxCell id="DdDH8tfC4Vi8uiK7Jez3-144" value="&lt;div align=&quot;center&quot;&gt;&lt;b&gt;recv ACK of SYN&lt;br&gt;&lt;/b&gt;&lt;/div&gt;&lt;div align=&quot;center&quot;&gt;- - - - - - - - - - - - - - - -&lt;br&gt;&lt;/div&gt;&lt;div align=&quot;center&quot;&gt;×&lt;br&gt;&lt;/div&gt;" style="text;whiteSpace=wrap;html=1;fontSize=12;fontFamily=Helvetica;fontColor=default;" vertex="1" parent="1">
          <mxGeometry x="1435" y="519" width="140" height="70" as="geometry" />
        </mxCell>
        <mxCell id="DdDH8tfC4Vi8uiK7Jez3-145" value="&lt;div align=&quot;center&quot;&gt;&lt;b&gt;recv FIN&lt;/b&gt;&lt;/div&gt;&lt;div align=&quot;center&quot;&gt;- - - - - - - - - - - - -&lt;br&gt;&lt;/div&gt;&lt;div align=&quot;center&quot;&gt;send ACK&lt;br&gt;&lt;/div&gt;" style="text;whiteSpace=wrap;html=1;fontSize=12;fontFamily=Helvetica;fontColor=default;align=center;" vertex="1" parent="1">
          <mxGeometry x="1706" y="602" width="140" height="70" as="geometry" />
        </mxCell>
        <mxCell id="DdDH8tfC4Vi8uiK7Jez3-147" value="" style="endArrow=classic;html=1;rounded=0;fontFamily=Helvetica;fontSize=12;fontColor=default;exitX=0.5;exitY=1;exitDx=0;exitDy=0;fillColor=#FF0000;strokeColor=#0000FF;entryX=0.5;entryY=0;entryDx=0;entryDy=0;shadow=0;" edge="1" parent="1" source="DdDH8tfC4Vi8uiK7Jez3-110" target="DdDH8tfC4Vi8uiK7Jez3-111">
          <mxGeometry width="50" height="50" relative="1" as="geometry">
            <mxPoint x="1966" y="739" as="sourcePoint" />
            <mxPoint x="1966" y="859" as="targetPoint" />
            <Array as="points" />
          </mxGeometry>
        </mxCell>
        <mxCell id="DdDH8tfC4Vi8uiK7Jez3-148" value="&lt;div align=&quot;center&quot;&gt;&lt;b&gt;recv ACK of FIN&lt;br&gt;&lt;/b&gt;&lt;/div&gt;&lt;div align=&quot;center&quot;&gt;- - - - - - - - - - - - - - - -&lt;br&gt;&lt;/div&gt;&lt;div align=&quot;center&quot;&gt;×&lt;br&gt;&lt;/div&gt;" style="text;whiteSpace=wrap;html=1;fontSize=12;fontFamily=Helvetica;fontColor=default;" vertex="1" parent="1">
          <mxGeometry x="1961" y="929" width="140" height="70" as="geometry" />
        </mxCell>
        <mxCell id="DdDH8tfC4Vi8uiK7Jez3-154" value="" style="endArrow=classic;html=1;rounded=0;dashed=1;fontFamily=Helvetica;fontSize=12;fontColor=default;exitX=0.5;exitY=0;exitDx=0;exitDy=0;entryX=0;entryY=0.5;entryDx=0;entryDy=0;fillColor=#FF0000;strokeColor=#000000;shadow=0;" edge="1" parent="1" source="DdDH8tfC4Vi8uiK7Jez3-101" target="DdDH8tfC4Vi8uiK7Jez3-96">
          <mxGeometry width="50" height="50" relative="1" as="geometry">
            <mxPoint x="1906" y="479" as="sourcePoint" />
            <mxPoint x="1466" y="479" as="targetPoint" />
            <Array as="points">
              <mxPoint x="1396" y="339" />
            </Array>
          </mxGeometry>
        </mxCell>
        <mxCell id="DdDH8tfC4Vi8uiK7Jez3-155" value="&lt;div align=&quot;center&quot;&gt;&lt;b&gt;recv RST&lt;br&gt;&lt;/b&gt;&lt;/div&gt;" style="text;whiteSpace=wrap;html=1;fontSize=12;fontFamily=Helvetica;fontColor=default;" vertex="1" parent="1">
          <mxGeometry x="1475" y="309" width="60" height="30" as="geometry" />
        </mxCell>
        <mxCell id="DdDH8tfC4Vi8uiK7Jez3-160" value="&lt;b&gt;Passive CLOSE&lt;/b&gt;" style="shape=umlFrame;whiteSpace=wrap;html=1;pointerEvents=0;width=120;height=20;strokeColor=#0000FF;dashed=1;fillColor=#F8CECC;" vertex="1" parent="1">
          <mxGeometry x="1826" y="649" width="260" height="270" as="geometry" />
        </mxCell>
        <mxCell id="DdDH8tfC4Vi8uiK7Jez3-163" value="" style="endArrow=classic;html=1;rounded=0;fontFamily=Helvetica;fontSize=12;fontColor=default;exitX=0.5;exitY=1;exitDx=0;exitDy=0;entryX=1;entryY=0.25;entryDx=0;entryDy=0;fillColor=#FF0000;strokeColor=#FF0000;shadow=0;" edge="1" parent="1" source="DdDH8tfC4Vi8uiK7Jez3-102" target="DdDH8tfC4Vi8uiK7Jez3-105">
          <mxGeometry width="50" height="50" relative="1" as="geometry">
            <mxPoint x="1736" y="124" as="sourcePoint" />
            <mxPoint x="1996" y="449" as="targetPoint" />
            <Array as="points">
              <mxPoint x="1956" y="574" />
            </Array>
          </mxGeometry>
        </mxCell>
        <mxCell id="DdDH8tfC4Vi8uiK7Jez3-164" value="&lt;div align=&quot;center&quot;&gt;&lt;b&gt;recv SYN + ACK&lt;br&gt;&lt;/b&gt;&lt;/div&gt;&lt;div align=&quot;center&quot;&gt;- - - - - - - - - - - - -&lt;br&gt;&lt;/div&gt;&lt;div align=&quot;center&quot;&gt;send ACK&lt;br&gt;&lt;/div&gt;" style="text;whiteSpace=wrap;html=1;fontSize=12;fontFamily=Helvetica;fontColor=default;align=center;" vertex="1" parent="1">
          <mxGeometry x="1786" y="519" width="140" height="70" as="geometry" />
        </mxCell>
        <mxCell id="DdDH8tfC4Vi8uiK7Jez3-165" value="" style="endArrow=classic;html=1;rounded=0;dashed=1;fontFamily=Helvetica;fontSize=12;fontColor=default;exitX=0.25;exitY=1;exitDx=0;exitDy=0;entryX=0.25;entryY=0;entryDx=0;entryDy=0;fillColor=#FF0000;strokeColor=#000000;shadow=0;" edge="1" parent="1" source="DdDH8tfC4Vi8uiK7Jez3-101" target="DdDH8tfC4Vi8uiK7Jez3-106">
          <mxGeometry width="50" height="50" relative="1" as="geometry">
            <mxPoint x="1616" y="349" as="sourcePoint" />
            <mxPoint x="1406" y="449" as="targetPoint" />
            <Array as="points" />
          </mxGeometry>
        </mxCell>
        <mxCell id="DdDH8tfC4Vi8uiK7Jez3-166" value="&lt;div&gt;&lt;br&gt;&lt;/div&gt;&lt;div&gt;&lt;b&gt;CLOSE&lt;/b&gt;&lt;br&gt;&lt;/div&gt;&lt;div&gt;- - - - - - - - - - - &lt;br&gt;&lt;/div&gt;&lt;div&gt;send FIN&lt;br&gt;&lt;/div&gt;" style="text;html=1;strokeColor=none;fillColor=none;align=center;verticalAlign=middle;whiteSpace=wrap;rounded=0;fontSize=12;fontFamily=Helvetica;fontColor=default;shadow=0;" vertex="1" parent="1">
          <mxGeometry x="1246" y="569" width="150" height="30" as="geometry" />
        </mxCell>
        <mxCell id="DdDH8tfC4Vi8uiK7Jez3-167" value="" style="endArrow=classic;html=1;rounded=0;fontFamily=Helvetica;fontSize=12;fontColor=default;exitX=0;exitY=0.75;exitDx=0;exitDy=0;entryX=0.75;entryY=0;entryDx=0;entryDy=0;fillColor=#FF0000;strokeColor=#FF0000;shadow=0;" edge="1" parent="1" source="DdDH8tfC4Vi8uiK7Jez3-105" target="DdDH8tfC4Vi8uiK7Jez3-106">
          <mxGeometry width="50" height="50" relative="1" as="geometry">
            <mxPoint x="1966" y="509" as="sourcePoint" />
            <mxPoint x="1736" y="584" as="targetPoint" />
            <Array as="points">
              <mxPoint x="1426" y="604" />
            </Array>
          </mxGeometry>
        </mxCell>
        <mxCell id="DdDH8tfC4Vi8uiK7Jez3-168" value="&lt;div&gt;&lt;br&gt;&lt;/div&gt;&lt;div&gt;&lt;b&gt;CLOSE&lt;/b&gt;&lt;br&gt;&lt;/div&gt;&lt;div&gt;- - - - - - - - - - - &lt;br&gt;&lt;/div&gt;&lt;div&gt;send FIN&lt;br&gt;&lt;/div&gt;" style="text;html=1;strokeColor=none;fillColor=none;align=center;verticalAlign=middle;whiteSpace=wrap;rounded=0;fontSize=12;fontFamily=Helvetica;fontColor=default;shadow=0;" vertex="1" parent="1">
          <mxGeometry x="1466" y="609" width="150" height="30" as="geometry" />
        </mxCell>
        <mxCell id="DdDH8tfC4Vi8uiK7Jez3-169" value="" style="endArrow=classic;html=1;rounded=0;fontFamily=Helvetica;fontSize=12;fontColor=default;exitX=0.5;exitY=1;exitDx=0;exitDy=0;fillColor=#FF0000;strokeColor=#FF0000;shadow=0;" edge="1" parent="1" source="DdDH8tfC4Vi8uiK7Jez3-106" target="DdDH8tfC4Vi8uiK7Jez3-108">
          <mxGeometry width="50" height="50" relative="1" as="geometry">
            <mxPoint x="1616" y="614" as="sourcePoint" />
            <mxPoint x="1436" y="679" as="targetPoint" />
            <Array as="points">
              <mxPoint x="1396" y="779" />
            </Array>
          </mxGeometry>
        </mxCell>
        <mxCell id="DdDH8tfC4Vi8uiK7Jez3-170" value="&lt;div align=&quot;center&quot;&gt;&lt;b&gt;recv ACK of FIN&lt;br&gt;&lt;/b&gt;&lt;/div&gt;&lt;div align=&quot;center&quot;&gt;- - - - - - - - - - - - - - - -&lt;br&gt;&lt;/div&gt;&lt;div align=&quot;center&quot;&gt;×&lt;br&gt;&lt;/div&gt;" style="text;whiteSpace=wrap;html=1;fontSize=12;fontFamily=Helvetica;fontColor=default;" vertex="1" parent="1">
          <mxGeometry x="1276" y="759" width="140" height="70" as="geometry" />
        </mxCell>
        <mxCell id="DdDH8tfC4Vi8uiK7Jez3-171" value="&lt;div align=&quot;center&quot;&gt;&lt;b&gt;recv FIN&lt;/b&gt;&lt;/div&gt;&lt;div align=&quot;center&quot;&gt;- - - - - - - - - - - - -&lt;br&gt;&lt;/div&gt;&lt;div align=&quot;center&quot;&gt;send ACK&lt;br&gt;&lt;/div&gt;" style="text;whiteSpace=wrap;html=1;fontSize=12;fontFamily=Helvetica;fontColor=default;align=center;" vertex="1" parent="1">
          <mxGeometry x="1256" y="949" width="140" height="70" as="geometry" />
        </mxCell>
        <mxCell id="DdDH8tfC4Vi8uiK7Jez3-172" value="" style="endArrow=classic;html=1;rounded=0;fontFamily=Helvetica;fontSize=12;fontColor=default;exitX=0.5;exitY=1;exitDx=0;exitDy=0;fillColor=#FF0000;strokeColor=#FF0000;shadow=0;entryX=0;entryY=0.5;entryDx=0;entryDy=0;" edge="1" parent="1" source="DdDH8tfC4Vi8uiK7Jez3-108" target="DdDH8tfC4Vi8uiK7Jez3-112">
          <mxGeometry width="50" height="50" relative="1" as="geometry">
            <mxPoint x="1406" y="739" as="sourcePoint" />
            <mxPoint x="1406" y="849" as="targetPoint" />
            <Array as="points">
              <mxPoint x="1396" y="1019" />
            </Array>
          </mxGeometry>
        </mxCell>
        <mxCell id="DdDH8tfC4Vi8uiK7Jez3-173" value="&lt;b&gt;Active CLOSE&lt;/b&gt;" style="shape=umlFrame;whiteSpace=wrap;html=1;pointerEvents=0;width=100;height=20;strokeColor=#FF0000;dashed=1;fillColor=#D5E8D4;" vertex="1" parent="1">
          <mxGeometry x="1256" y="659" width="490" height="410" as="geometry" />
        </mxCell>
        <mxCell id="DdDH8tfC4Vi8uiK7Jez3-175" value="" style="endArrow=classic;html=1;rounded=0;dashed=1;fontFamily=Helvetica;fontSize=12;fontColor=default;exitX=1;exitY=0.5;exitDx=0;exitDy=0;entryX=0.5;entryY=0;entryDx=0;entryDy=0;fillColor=#FF0000;strokeColor=#000000;shadow=0;" edge="1" parent="1" source="DdDH8tfC4Vi8uiK7Jez3-106" target="DdDH8tfC4Vi8uiK7Jez3-109">
          <mxGeometry width="50" height="50" relative="1" as="geometry">
            <mxPoint x="1376" y="509" as="sourcePoint" />
            <mxPoint x="1376" y="699" as="targetPoint" />
            <Array as="points">
              <mxPoint x="1666" y="719" />
            </Array>
          </mxGeometry>
        </mxCell>
        <mxCell id="DdDH8tfC4Vi8uiK7Jez3-176" value="&lt;div align=&quot;center&quot;&gt;&lt;b&gt;recv FIN&lt;br&gt;&lt;/b&gt;&lt;/div&gt;&lt;div align=&quot;center&quot;&gt;- - - - - - - - - - -&lt;br&gt;&lt;/div&gt;&lt;div align=&quot;center&quot;&gt;send ACK&lt;br&gt;&lt;/div&gt;" style="text;html=1;strokeColor=none;fillColor=none;align=center;verticalAlign=middle;whiteSpace=wrap;rounded=0;fontSize=12;fontFamily=Helvetica;fontColor=default;shadow=0;" vertex="1" parent="1">
          <mxGeometry x="1516" y="749" width="150" height="30" as="geometry" />
        </mxCell>
        <mxCell id="DdDH8tfC4Vi8uiK7Jez3-177" value="" style="endArrow=classic;html=1;rounded=0;fontFamily=Helvetica;fontSize=12;fontColor=default;exitX=1;exitY=0.5;exitDx=0;exitDy=0;fillColor=#FF0000;strokeColor=#FF0000;shadow=0;entryX=0;entryY=0.5;entryDx=0;entryDy=0;" edge="1" parent="1" source="DdDH8tfC4Vi8uiK7Jez3-112" target="DdDH8tfC4Vi8uiK7Jez3-111">
          <mxGeometry width="50" height="50" relative="1" as="geometry">
            <mxPoint x="1406" y="909" as="sourcePoint" />
            <mxPoint x="1616" y="1029" as="targetPoint" />
            <Array as="points" />
          </mxGeometry>
        </mxCell>
        <mxCell id="DdDH8tfC4Vi8uiK7Jez3-178" value="&lt;div align=&quot;center&quot;&gt;&lt;b&gt;Timeout=2MSL&lt;br&gt;&lt;/b&gt;&lt;/div&gt;&lt;div align=&quot;center&quot;&gt;- - - - - - - - - - - - -&lt;br&gt;&lt;/div&gt;&lt;div align=&quot;center&quot;&gt;delete TCB&lt;br&gt;&lt;/div&gt;" style="text;whiteSpace=wrap;html=1;fontSize=12;fontFamily=Helvetica;fontColor=default;align=center;" vertex="1" parent="1">
          <mxGeometry x="1746" y="959" width="140" height="70" as="geometry" />
        </mxCell>
        <mxCell id="DdDH8tfC4Vi8uiK7Jez3-179" value="" style="endArrow=classic;html=1;rounded=0;dashed=1;fontFamily=Helvetica;fontSize=12;fontColor=default;exitX=0.5;exitY=1;exitDx=0;exitDy=0;entryX=0.5;entryY=0;entryDx=0;entryDy=0;fillColor=#FF0000;strokeColor=#000000;shadow=0;" edge="1" parent="1" source="DdDH8tfC4Vi8uiK7Jez3-109" target="DdDH8tfC4Vi8uiK7Jez3-112">
          <mxGeometry width="50" height="50" relative="1" as="geometry">
            <mxPoint x="1466" y="729" as="sourcePoint" />
            <mxPoint x="1676" y="849" as="targetPoint" />
            <Array as="points" />
          </mxGeometry>
        </mxCell>
        <mxCell id="DdDH8tfC4Vi8uiK7Jez3-180" value="&lt;div align=&quot;center&quot;&gt;&lt;b&gt;recv ACK of FIN&lt;br&gt;&lt;/b&gt;&lt;/div&gt;&lt;div align=&quot;center&quot;&gt;- - - - - - - - - - - - - - - -&lt;br&gt;&lt;/div&gt;&lt;div align=&quot;center&quot;&gt;×&lt;br&gt;&lt;/div&gt;" style="text;whiteSpace=wrap;html=1;fontSize=12;fontFamily=Helvetica;fontColor=default;" vertex="1" parent="1">
          <mxGeometry x="1536" y="919" width="140" height="70" as="geometry" />
        </mxCell>
        <mxCell id="DdDH8tfC4Vi8uiK7Jez3-183" value="" style="endArrow=classic;html=1;rounded=0;dashed=1;fontFamily=Helvetica;fontSize=12;fontColor=default;fillColor=#FF0000;strokeColor=#000000;shadow=0;" edge="1" parent="1">
          <mxGeometry width="50" height="50" relative="1" as="geometry">
            <mxPoint x="1294" y="195" as="sourcePoint" />
            <mxPoint x="1324" y="195" as="targetPoint" />
            <Array as="points">
              <mxPoint x="1284" y="195" />
            </Array>
          </mxGeometry>
        </mxCell>
        <mxCell id="DdDH8tfC4Vi8uiK7Jez3-190" value="" style="endArrow=classic;html=1;rounded=0;fontFamily=Helvetica;fontSize=12;fontColor=default;fillColor=#FF0000;strokeColor=#FF0000;shadow=0;" edge="1" parent="1">
          <mxGeometry width="50" height="50" relative="1" as="geometry">
            <mxPoint x="1285" y="226" as="sourcePoint" />
            <mxPoint x="1325" y="226" as="targetPoint" />
            <Array as="points">
              <mxPoint x="1305" y="226" />
            </Array>
          </mxGeometry>
        </mxCell>
        <mxCell id="DdDH8tfC4Vi8uiK7Jez3-191" value="" style="endArrow=classic;html=1;rounded=0;fontFamily=Helvetica;fontSize=12;fontColor=default;fillColor=#FF0000;strokeColor=#0000FF;shadow=0;" edge="1" parent="1">
          <mxGeometry width="50" height="50" relative="1" as="geometry">
            <mxPoint x="1284" y="256" as="sourcePoint" />
            <mxPoint x="1324" y="256" as="targetPoint" />
            <Array as="points">
              <mxPoint x="1304" y="256" />
            </Array>
          </mxGeometry>
        </mxCell>
        <mxCell id="DdDH8tfC4Vi8uiK7Jez3-194" value="&lt;div align=&quot;left&quot;&gt;unusual event&lt;/div&gt;" style="text;html=1;strokeColor=none;fillColor=none;align=left;verticalAlign=middle;whiteSpace=wrap;rounded=0;" vertex="1" parent="1">
          <mxGeometry x="1333" y="179" width="150" height="30" as="geometry" />
        </mxCell>
        <mxCell id="DdDH8tfC4Vi8uiK7Jez3-195" value="&lt;div align=&quot;left&quot;&gt;client path&lt;/div&gt;" style="text;html=1;strokeColor=none;fillColor=none;align=left;verticalAlign=middle;whiteSpace=wrap;rounded=0;" vertex="1" parent="1">
          <mxGeometry x="1333" y="209" width="150" height="30" as="geometry" />
        </mxCell>
        <mxCell id="DdDH8tfC4Vi8uiK7Jez3-196" value="&lt;div align=&quot;left&quot;&gt;server path&lt;/div&gt;" style="text;html=1;strokeColor=none;fillColor=none;align=left;verticalAlign=middle;whiteSpace=wrap;rounded=0;" vertex="1" parent="1">
          <mxGeometry x="1333" y="239" width="150" height="30" as="geometry" />
        </mxCell>
        <mxCell id="DdDH8tfC4Vi8uiK7Jez3-199" value="&lt;div&gt;&lt;br&gt;&lt;/div&gt;&lt;div&gt;&lt;b&gt;SEND&lt;/b&gt;&lt;br&gt;&lt;/div&gt;&lt;div&gt;- - - - - - - - - - - &lt;br&gt;&lt;/div&gt;send SYN" style="text;html=1;strokeColor=none;fillColor=none;align=center;verticalAlign=middle;whiteSpace=wrap;rounded=0;fontSize=12;fontFamily=Helvetica;fontColor=default;shadow=0;" vertex="1" parent="1">
          <mxGeometry x="1706" y="399" width="150" height="30" as="geometry" />
        </mxCell>
        <mxCell id="DdDH8tfC4Vi8uiK7Jez3-200" value="" style="endArrow=classic;html=1;rounded=0;dashed=1;fontFamily=Helvetica;fontSize=12;fontColor=default;exitX=0.75;exitY=1;exitDx=0;exitDy=0;entryX=0;entryY=0.25;entryDx=0;entryDy=0;fillColor=#FF0000;strokeColor=#000000;shadow=0;" edge="1" parent="1" source="DdDH8tfC4Vi8uiK7Jez3-96" target="DdDH8tfC4Vi8uiK7Jez3-102">
          <mxGeometry width="50" height="50" relative="1" as="geometry">
            <mxPoint x="1706" y="319" as="sourcePoint" />
            <mxPoint x="1706" y="169" as="targetPoint" />
            <Array as="points">
              <mxPoint x="1696" y="454" />
            </Array>
          </mxGeometry>
        </mxCell>
        <mxCell id="DdDH8tfC4Vi8uiK7Jez3-201" style="edgeStyle=orthogonalEdgeStyle;rounded=0;orthogonalLoop=1;jettySize=auto;html=1;exitX=0.5;exitY=1;exitDx=0;exitDy=0;" edge="1" parent="1" source="DdDH8tfC4Vi8uiK7Jez3-199" target="DdDH8tfC4Vi8uiK7Jez3-199">
          <mxGeometry relative="1" as="geometry" />
        </mxCell>
      </root>
    </mxGraphModel>
  </diagram>
</mxfile>
